:SAMPLES-PER-SECOND 30
:FRAME-RANGE 1-1086
:FULLY-SPECIFIED
:DEGREES
34
root  -58.9536 39.1862 -37.846 177.828 26.2146 179.904
RightUpLeg  1.59234 -7.0866 -1.08937
RightLeg  14.8722 -6.39801 -0.687968
RightFoot  -15.8335 0.100111 5.28713
RightToes  -5.8209e-011 0 -3.6325e-017
Spine  4.15287 -0.641116 7.86589
Spine1  -0.59192 0.0584573 0.610787
HEad  13.6166 -5.25684 -8.30169
LeftShoulder1  1.45162 -0.154154 -33.6236
LeftArm  17.3193 2.03366 -35.0309
LeftForeArm  4.00503 -9.11682 -15.8449
LeftHand  0.310577 -2.04828 -4.6863
RightShoulder  8.14959 10.6614 50.3896
RightArm  14.9299 2.80968 14.7125
RightForeArm  20.7007 -3.52615 18.0069
RightHand  0.336463 4.14657 3.81711
LeftUpLeg  -16.6725 7.90959 4.44379
LeftLeg  39.9281 1.43409 1.65412
LeftFoot  -5.94942 0.580671 -11.5462
LeftToes  5.72949e-011 5.22586e-011 2.45399e-011
35
root  -58.8476 39.2533 -38.1909 177.756 25.8987 179.117
RightUpLeg  2.41659 -7.49933 -2.05382
RightLeg  13.8791 -6.17922 -0.563053
RightFoot  -15.8437 0.110734 5.54698
RightToes  -5.8209e-011 0 -3.6325e-017
Spine  4.19907 -0.357358 7.86661
Spine1  -0.721062 0.363839 -0.144643
HEad  13.5169 -4.94634 -8.38655
LeftShoulder1  1.42907 -0.100827 -33.5847
LeftArm  17.1889 2.77326 -34.6936
LeftForeArm  3.79134 -9.56873 -15.5804
LeftHand  0.308184 -2.02228 -4.66847
RightShoulder  8.57798 11.2716 50.8386
RightArm  16.8717 2.50862 13.9422
RightForeArm  18.4615 -3.13227 18.225
RightHand  0.348419 4.16477 3.95356
LeftUpLeg  -18.3887 9.13904 2.92557
LeftLeg  38.4483 1.31292 1.47998
LeftFoot  -5.88328 0.598427 -11.7844
LeftToes  5.72949e-011 5.22586e-011 2.45399e-011
36
root  -58.7339 39.3267 -38.5787 177.723 25.5072 178.431
RightUpLeg  3.51748 -7.82512 -2.94214
RightLeg  12.5053 -6.20563 -0.424353
RightFoot  -15.7023 0.109316 5.66472
RightToes  -5.8209e-011 0 -3.6325e-017
Spine  4.17796 -0.126517 7.67135
Spine1  -0.718996 0.57005 -0.757982
HEad  13.1914 -4.79479 -8.47812
LeftShoulder1  1.41087 -0.0595637 -33.5331
LeftArm  16.1914 3.54642 -34.3548
LeftForeArm  4.07363 -9.43957 -15.5795
LeftHand  0.3056 -1.99786 -4.65698
RightShoulder  8.69352 11.5195 50.6744
RightArm  16.7844 2.49725 14.1293
RightForeArm  18.6438 -2.51214 18.1368
RightHand  0.348035 4.2048 3.92967
LeftUpLeg  -19.4344 10.6639 1.4361
LeftLeg  34.8056 1.53326 1.49509
LeftFoot  -5.78729 0.609389 -11.8174
LeftToes  5.72949e-011 5.22586e-011 2.45399e-011
37
root  -58.6185 39.4025 -38.9952 177.788 25.0748 177.829
RightUpLeg  4.72942 -8.00409 -3.72461
RightLeg  10.8708 -6.37875 -0.297849
RightFoot  -15.487 0.110601 5.95447
RightToes  -5.8209e-011 0 -3.6325e-017
Spine  4.1613 0.0909932 7.21441
Spine1  -0.691731 0.728841 -1.22615
HEad  12.7114 -4.6857 -8.43233
LeftShoulder1  1.40259 -0.037233 -33.5484
LeftArm  15.427 4.27674 -33.9695
LeftForeArm  4.30179 -9.03152 -15.7578
LeftHand  0.306411 -1.95532 -4.69007
RightShoulder  8.74974 11.6345 50.6147
RightArm  17.1446 2.72551 14.3244
RightForeArm  18.6438 -1.91858 18.0919
RightHand  0.343503 4.11666 3.91698
LeftUpLeg  -19.8963 12.4573 -0.0573914
LeftLeg  29.3997 1.59759 1.30917
LeftFoot  -5.44549 0.646003 -11.8795
LeftToes  5.72949e-011 5.22586e-011 2.45399e-011
38
root  -58.4978 39.4737 -39.4418 177.939 24.6172 177.316
RightUpLeg  6.00084 -8.05799 -4.39504
RightLeg  9.09462 -6.68116 -0.174292
RightFoot  -15.2002 0.10781 6.25701
RightToes  -5.8209e-011 0 -3.6325e-017
Spine  4.05229 0.265916 6.51195
Spine1  -0.53285 0.832984 -1.55236
HEad  12.2191 -4.68058 -8.18646
LeftShoulder1  1.40263 -0.0348102 -33.5765
LeftArm  13.9438 4.94721 -33.5535
LeftForeArm  5.24399 -8.03706 -16.1563
LeftHand  0.315039 -1.90817 -4.86233
RightShoulder  8.83515 11.776 50.6342
RightArm  17.5996 2.95294 14.4903
RightForeArm  18.6334 -1.3529 18.0515
RightHand  0.33453 4.08723 3.82151
LeftUpLeg  -19.7646 14.2636 -1.50555
LeftLeg  22.5837 1.28852 0.913242
LeftFoot  -4.61752 0.715401 -11.6773
LeftToes  5.72949e-011 5.22586e-011 2.45399e-011
39
root  -58.3776 39.4896 -39.9474 178.288 24.2139 177.103
RightUpLeg  7.13306 -8.05413 -4.80671
RightLeg  7.65884 -7.02953 -0.0326651
RightFoot  -15.1873 0.119595 6.62602
RightToes  -5.8209e-011 0 -3.6325e-017
Spine  3.82948 0.395741 6.02469
Spine1  -0.376702 0.930572 -1.8902
HEad  11.7861 -4.67731 -7.8084
LeftShoulder1  1.40372 -0.0421452 -33.5256
LeftArm  12.6855 5.78562 -33.1218
LeftForeArm  5.91946 -7.0205 -16.5452
LeftHand  0.328346 -1.91248 -5.07097
RightShoulder  9.00627 12.0227 50.7913
RightArm  17.777 2.90577 14.5509
RightForeArm  18.5309 -0.744345 17.9593
RightHand  0.334011 3.93662 3.88742
LeftUpLeg  -19.3729 15.9045 -2.70581
LeftLeg  15.3115 1.41233 0.71682
LeftFoot  -2.20067 0.896149 -11.0209
LeftToes  5.72949e-011 5.22586e-011 2.45399e-011
40
root  -58.2565 39.4448 -40.5286 178.704 23.7802 177.127
RightUpLeg  8.20058 -8.09198 -5.06593
RightLeg  6.73082 -7.4083 0.0883953
RightFoot  -15.4995 0.147453 6.95272
RightToes  -5.8209e-011 0 -3.6325e-017
Spine  3.6294 0.392618 5.58984
Spine1  -0.27122 0.897482 -2.04285
HEad  11.3368 -4.51205 -7.23903
LeftShoulder1  1.36833 0.0332487 -33.3661
LeftArm  11.2382 6.88104 -32.7248
LeftForeArm  6.83871 -5.9891 -16.8695
LeftHand  0.338372 -1.87887 -5.25799
RightShoulder  9.1357 12.1966 50.947
RightArm  17.6572 3.03082 14.7922
RightForeArm  18.9287 -0.697071 17.9213
RightHand  0.332179 4.08074 3.79874
LeftUpLeg  -18.5228 11.7465 -1.27663
LeftLeg  9.44869 7.57926 -0.705226
LeftFoot  0.410778 1.06342 -10.3373
LeftToes  5.72949e-011 5.22586e-011 2.45399e-011
41
root  -58.1328 39.3275 -41.1858 179.174 23.3263 177.456
RightUpLeg  9.18482 -7.96439 -4.99363
RightLeg  6.37532 -7.82462 0.057528
RightFoot  -16.2285 0.214891 7.60803
RightToes  -5.8209e-011 0 -3.6325e-017
Spine  3.52192 0.464023 5.1551
Spine1  -0.230767 0.915217 -1.91328
HEad  10.9215 -4.81491 -6.60544
LeftShoulder1  1.36828 0.0286355 -33.3131
LeftArm  10.3269 8.00197 -32.1053
LeftForeArm  7.26857 -5.32277 -17.0567
LeftHand  0.350003 -1.8857 -5.43826
RightShoulder  9.07997 12.0391 51.147
RightArm  18.0254 3.16488 14.9329
RightForeArm  18.8976 -0.434493 17.9011
RightHand  0.33301 4.13811 3.72052
LeftUpLeg  -18.4156 8.8381 -0.0557926
LeftLeg  6.43257 11.3776 -1.92903
LeftFoot  2.19937 1.14693 -9.757
LeftToes  5.72949e-011 5.22586e-011 2.45399e-011
42
root  -58.0165 39.1476 -41.9357 179.427 22.9552 177.747
RightUpLeg  10.2294 -8.0619 -5.18828
RightLeg  6.71143 -7.80843 0.0100627
RightFoot  -17.3803 0.326324 8.41111
RightToes  -5.8209e-011 0 -3.6325e-017
Spine  3.40195 0.493571 4.78069
Spine1  0.0191463 0.953738 -1.98149
HEad  10.3504 -5.03998 -5.78396
LeftShoulder1  1.35411 0.0512316 -33.161
LeftArm  9.56922 9.23987 -31.364
LeftForeArm  7.28563 -5.10093 -17.0865
LeftHand  0.371185 -1.80061 -5.85332
RightShoulder  9.09358 11.9674 51.4554
RightArm  18.2878 3.11724 15.0578
RightForeArm  18.8628 -0.178122 17.8703
RightHand  0.335079 4.19759 3.72465
LeftUpLeg  -18.6005 8.30177 0.0792998
LeftLeg  6.06497 12.043 -2.01742
LeftFoot  3.24777 1.1547 -9.16146
LeftToes  5.72949e-011 5.22586e-011 2.45399e-011
43
root  -57.9218 38.9513 -42.7832 179.404 22.7602 177.777
RightUpLeg  11.3945 -8.15001 -5.71427
RightLeg  7.39709 -7.53165 -0.308151
RightFoot  -18.6429 0.48057 9.49841
RightToes  -5.8209e-011 0 -3.6325e-017
Spine  3.46733 0.556436 4.40967
Spine1  0.124424 1.13477 -2.50961
HEad  9.92812 -5.41632 -4.75506
LeftShoulder1  1.31886 0.118685 -32.9018
LeftArm  8.89753 10.4908 -30.5327
LeftForeArm  7.53608 -4.82601 -17.1311
LeftHand  0.399195 -1.92568 -6.18611
RightShoulder  8.98187 11.6802 51.779
RightArm  18.0512 2.86136 15.1979
RightForeArm  19.0729 -0.0565999 17.8049
RightHand  0.337181 4.21248 3.79506
LeftUpLeg  -19.0311 9.61975 -0.966278
LeftLeg  8.21721 10.9888 -1.07138
LeftFoot  5.53486 0.971866 -6.77389
LeftToes  5.72949e-011 5.22586e-011 2.45399e-011
44
root  -57.8595 38.8119 -43.6895 179.068 22.7081 177.167
RightUpLeg  12.6782 -8.26817 -6.93999
RightLeg  7.9603 -6.96168 -0.820105
RightFoot  -19.5058 0.640853 10.8096
RightToes  -5.8209e-011 0 -3.6325e-017
Spine  3.62539 0.69781 3.32556
Spine1  0.264793 1.42387 -3.26105
HEad  9.7307 -5.74651 -4.01266
LeftShoulder1  1.27422 0.219967 -32.7433
LeftArm  9.07941 11.6983 -29.5169
LeftForeArm  6.80295 -5.02696 -17.1132
LeftHand  0.393615 -1.74836 -6.26645
RightShoulder  8.80892 11.3407 51.941
RightArm  18.5631 2.25096 15.354
RightForeArm  18.7934 0.338519 17.7649
RightHand  0.333284 4.2728 3.70063
LeftUpLeg  -19.5397 11.8251 -3.17282
LeftLeg  11.328 8.36042 -0.222912
LeftFoot  5.20964 0.161462 -1.32795
LeftToes  5.72949e-011 5.22586e-011 2.45399e-011
